{
	"asset":{
		"generator":"Khronos glTF Blender I/O v4.2.57",
		"version":"2.0"
	},
	"extensionsUsed": [
		"KHR_texture_basisu"
	],
	"scene":0,
	"scenes":[
		{
			"name":"Scene",
			"nodes":[
				0
			]
		}
	],
	"nodes":[
		{
			"mesh":0,
			"name":"alt3"
		}
	],
	"materials":[
		{
			"emissiveFactor":[
				1,
				1,
				1
			],
			"emissiveTexture":{
				"index":0
			},
			"name":"alt3",
			"pbrMetallicRoughness":{
				"baseColorFactor":[
					0,
					0,
					0,
					1
				]
			}
		}
	],
	"meshes":[
		{
			"name":"Plane.018",
			"primitives":[
				{
					"attributes":{
						"POSITION":0,
						"TEXCOORD_0":1,
						"COLOR_0":2,
						"COLOR_1":3,
						"COLOR_2":4
					},
					"indices":5,
					"material":0
				}
			]
		}
	],
	"textures":[
		{
			"sampler":0,
			"source":0,
			"extensions": {
				"KHR_texture_basisu": {
					"source": 0
				}
			}
		}
	],
	"images":[
		{
			"mimeType":"image/ktx2",
			"name":"alt3",
			"uri":"alt3/alt3.ktx2"
		}
	],
	"accessors":[
		{
			"bufferView":0,
			"componentType":5126,
			"count":29903,
			"max":[
				2.086069107055664,
				3.0880379676818848,
				1.4647678136825562
			],
			"min":[
				-2.096916675567627,
				-0.0167891513556242,
				-1.4631620645523071
			],
			"type":"VEC3"
		},
		{
			"bufferView":1,
			"componentType":5126,
			"count":29903,
			"type":"VEC2"
		},
		{
			"bufferView":2,
			"componentType":5121,
			"count":29903,
			"normalized":true,
			"type":"VEC4"
		},
		{
			"bufferView":3,
			"componentType":5126,
			"count":29903,
			"type":"VEC3"
		},
		{
			"bufferView":4,
			"componentType":5126,
			"count":29903,
			"type":"VEC3"
		},
		{
			"bufferView":5,
			"componentType":5123,
			"count":72072,
			"type":"SCALAR"
		}
	],
	"bufferViews":[
		{
			"buffer":0,
			"byteLength":358836,
			"byteOffset":0,
			"target":34962
		},
		{
			"buffer":0,
			"byteLength":239224,
			"byteOffset":358836,
			"target":34962
		},
		{
			"buffer":0,
			"byteLength":119612,
			"byteOffset":598060,
			"target":34962
		},
		{
			"buffer":0,
			"byteLength":358836,
			"byteOffset":717672,
			"target":34962
		},
		{
			"buffer":0,
			"byteLength":358836,
			"byteOffset":1076508,
			"target":34962
		},
		{
			"buffer":0,
			"byteLength":144144,
			"byteOffset":1435344,
			"target":34963
		}
	],
	"samplers":[
		{
			"magFilter":9729,
			"minFilter":9987
		}
	],
	"buffers":[
		{
			"byteLength":1579488,
			"uri":"alt3.bin"
		}
	]
}
