{
	"asset":{
		"generator":"Khronos glTF Blender I/O v4.2.57",
		"version":"2.0"
	},
	"extensionsUsed":[
		"KHR_materials_transmission",
		"KHR_materials_ior"
	],
	"scene":0,
	"scenes":[
		{
			"name":"Scene",
			"nodes":[
				0
			]
		}
	],
	"nodes":[
		{
			"mesh":0,
			"name":"alt2"
		}
	],
	"materials":[
		{
			"emissiveFactor":[
				1,
				1,
				1
			],
			"emissiveTexture":{
				"index":0
			},
			"name":"alt2baked",
			"pbrMetallicRoughness":{
				"baseColorFactor":[
					0,
					0,
					0,
					1
				]
			}
		},
		{
			"alphaMode":"BLEND",
			"extensions":{
				"KHR_materials_transmission":{
					"transmissionFactor":1
				},
				"KHR_materials_ior":{
					"ior":1.4500000476837158
				}
			},
			"name":"glassforgltf",
			"pbrMetallicRoughness":{
				"baseColorFactor":[
					1,
					1,
					1,
					0.699999988079071
				],
				"metallicFactor":0,
				"roughnessFactor":0.019999999552965164
			}
		}
	],
	"meshes":[
		{
			"name":"Plane.004",
			"primitives":[
				{
					"attributes":{
						"POSITION":0,
						"TEXCOORD_0":1,
						"TEXCOORD_1":2,
						"TEXCOORD_2":3,
						"COLOR_0":4,
						"COLOR_1":5,
						"COLOR_2":6,
						"COLOR_3":7,
						"COLOR_4":8,
						"COLOR_5":9
					},
					"indices":10,
					"material":0
				},
				{
					"attributes":{
						"POSITION":11,
						"TEXCOORD_0":12,
						"TEXCOORD_1":13,
						"TEXCOORD_2":14,
						"COLOR_0":15,
						"COLOR_1":16,
						"COLOR_2":17,
						"COLOR_3":18,
						"COLOR_4":19,
						"COLOR_5":20
					},
					"indices":21,
					"material":1
				}
			]
		}
	],
	"textures":[
		{
			"sampler":0,
			"source":0
		}
	],
	"images":[
		{
			"mimeType":"image/jpeg",
			"name":"alt2",
			"uri":"alt2/alt2.jpg"
		}
	],
	"accessors":[
		{
			"bufferView":0,
			"componentType":5126,
			"count":25139,
			"max":[
				1.8902525901794434,
				2.7799999713897705,
				1.700777292251587
			],
			"min":[
				-1.9765403270721436,
				-0.010000096634030342,
				-0.7286402583122253
			],
			"type":"VEC3"
		},
		{
			"bufferView":1,
			"componentType":5126,
			"count":25139,
			"type":"VEC2"
		},
		{
			"bufferView":2,
			"componentType":5126,
			"count":25139,
			"type":"VEC2"
		},
		{
			"bufferView":3,
			"componentType":5126,
			"count":25139,
			"type":"VEC2"
		},
		{
			"bufferView":4,
			"componentType":5121,
			"count":25139,
			"normalized":true,
			"type":"VEC4"
		},
		{
			"bufferView":5,
			"componentType":5126,
			"count":25139,
			"type":"VEC3"
		},
		{
			"bufferView":6,
			"componentType":5126,
			"count":25139,
			"type":"VEC3"
		},
		{
			"bufferView":7,
			"componentType":5126,
			"count":25139,
			"type":"VEC3"
		},
		{
			"bufferView":8,
			"componentType":5126,
			"count":25139,
			"type":"VEC3"
		},
		{
			"bufferView":9,
			"componentType":5126,
			"count":25139,
			"type":"VEC3"
		},
		{
			"bufferView":10,
			"componentType":5123,
			"count":73416,
			"type":"SCALAR"
		},
		{
			"bufferView":11,
			"componentType":5126,
			"count":12,
			"max":[
				-1.9590401649475098,
				2.593423843383789,
				1.2405426502227783
			],
			"min":[
				-1.9590401649475098,
				0.8299997448921204,
				-0.006112635135650635
			],
			"type":"VEC3"
		},
		{
			"bufferView":12,
			"componentType":5126,
			"count":12,
			"type":"VEC2"
		},
		{
			"bufferView":13,
			"componentType":5126,
			"count":12,
			"type":"VEC2"
		},
		{
			"bufferView":14,
			"componentType":5126,
			"count":12,
			"type":"VEC2"
		},
		{
			"bufferView":15,
			"componentType":5121,
			"count":12,
			"normalized":true,
			"type":"VEC4"
		},
		{
			"bufferView":16,
			"componentType":5126,
			"count":12,
			"type":"VEC3"
		},
		{
			"bufferView":17,
			"componentType":5126,
			"count":12,
			"type":"VEC3"
		},
		{
			"bufferView":18,
			"componentType":5126,
			"count":12,
			"type":"VEC3"
		},
		{
			"bufferView":19,
			"componentType":5126,
			"count":12,
			"type":"VEC3"
		},
		{
			"bufferView":20,
			"componentType":5126,
			"count":12,
			"type":"VEC3"
		},
		{
			"bufferView":21,
			"componentType":5123,
			"count":18,
			"type":"SCALAR"
		}
	],
	"bufferViews":[
		{
			"buffer":0,
			"byteLength":301668,
			"byteOffset":0,
			"target":34962
		},
		{
			"buffer":0,
			"byteLength":201112,
			"byteOffset":301668,
			"target":34962
		},
		{
			"buffer":0,
			"byteLength":201112,
			"byteOffset":502780,
			"target":34962
		},
		{
			"buffer":0,
			"byteLength":201112,
			"byteOffset":703892,
			"target":34962
		},
		{
			"buffer":0,
			"byteLength":100556,
			"byteOffset":905004,
			"target":34962
		},
		{
			"buffer":0,
			"byteLength":301668,
			"byteOffset":1005560,
			"target":34962
		},
		{
			"buffer":0,
			"byteLength":301668,
			"byteOffset":1307228,
			"target":34962
		},
		{
			"buffer":0,
			"byteLength":301668,
			"byteOffset":1608896,
			"target":34962
		},
		{
			"buffer":0,
			"byteLength":301668,
			"byteOffset":1910564,
			"target":34962
		},
		{
			"buffer":0,
			"byteLength":301668,
			"byteOffset":2212232,
			"target":34962
		},
		{
			"buffer":0,
			"byteLength":146832,
			"byteOffset":2513900,
			"target":34963
		},
		{
			"buffer":0,
			"byteLength":144,
			"byteOffset":2660732,
			"target":34962
		},
		{
			"buffer":0,
			"byteLength":96,
			"byteOffset":2660876,
			"target":34962
		},
		{
			"buffer":0,
			"byteLength":96,
			"byteOffset":2660972,
			"target":34962
		},
		{
			"buffer":0,
			"byteLength":96,
			"byteOffset":2661068,
			"target":34962
		},
		{
			"buffer":0,
			"byteLength":48,
			"byteOffset":2661164,
			"target":34962
		},
		{
			"buffer":0,
			"byteLength":144,
			"byteOffset":2661212,
			"target":34962
		},
		{
			"buffer":0,
			"byteLength":144,
			"byteOffset":2661356,
			"target":34962
		},
		{
			"buffer":0,
			"byteLength":144,
			"byteOffset":2661500,
			"target":34962
		},
		{
			"buffer":0,
			"byteLength":144,
			"byteOffset":2661644,
			"target":34962
		},
		{
			"buffer":0,
			"byteLength":144,
			"byteOffset":2661788,
			"target":34962
		},
		{
			"buffer":0,
			"byteLength":36,
			"byteOffset":2661932,
			"target":34963
		}
	],
	"samplers":[
		{
			"magFilter":9729,
			"minFilter":9987
		}
	],
	"buffers":[
		{
			"byteLength":2661968,
			"uri":"alt2.bin"
		}
	]
}
