{
	"asset":{
		"generator":"Khronos glTF Blender I/O v4.2.57",
		"version":"2.0"
	},
	"scene":0,
	"scenes":[
		{
			"name":"Scene",
			"nodes":[
				0
			]
		}
	],
	"nodes":[
		{
			"mesh":0,
			"name":"alt1"
		}
	],
	"materials":[
		{
			"emissiveFactor":[
				1,
				1,
				1
			],
			"emissiveTexture":{
				"index":0
			},
			"name":"alt1",
			"pbrMetallicRoughness":{
				"baseColorFactor":[
					0,
					0,
					0,
					1
				]
			}
		}
	],
	"meshes":[
		{
			"name":"Mesh.955",
			"primitives":[
				{
					"attributes":{
						"POSITION":0,
						"TEXCOORD_0":1,
						"COLOR_0":2,
						"COLOR_1":3,
						"COLOR_2":4
					},
					"indices":5,
					"material":0
				}
			]
		}
	],
	"textures":[
		{
			"sampler":0,
			"source":0
		}
	],
	"images":[
		{
			"mimeType":"image/jpeg",
			"name":"pillow.021_Baked.005_Bake_CyclesBake_COMBINED",
			"uri":"alt1/pillow_021_Baked_005_Bake_CyclesBake_COMBINED.jpg"
		}
	],
	"accessors":[
		{
			"bufferView":0,
			"componentType":5126,
			"count":29375,
			"max":[
				1.7500004768371582,
				2.5,
				1.7060441970825195
			],
			"min":[
				-1.797572135925293,
				-0.010000020265579224,
				-1.203370451927185
			],
			"type":"VEC3"
		},
		{
			"bufferView":1,
			"componentType":5126,
			"count":29375,
			"type":"VEC2"
		},
		{
			"bufferView":2,
			"componentType":5121,
			"count":29375,
			"normalized":true,
			"type":"VEC4"
		},
		{
			"bufferView":3,
			"componentType":5126,
			"count":29375,
			"type":"VEC3"
		},
		{
			"bufferView":4,
			"componentType":5126,
			"count":29375,
			"type":"VEC3"
		},
		{
			"bufferView":5,
			"componentType":5123,
			"count":67362,
			"type":"SCALAR"
		}
	],
	"bufferViews":[
		{
			"buffer":0,
			"byteLength":352500,
			"byteOffset":0,
			"target":34962
		},
		{
			"buffer":0,
			"byteLength":235000,
			"byteOffset":352500,
			"target":34962
		},
		{
			"buffer":0,
			"byteLength":117500,
			"byteOffset":587500,
			"target":34962
		},
		{
			"buffer":0,
			"byteLength":352500,
			"byteOffset":705000,
			"target":34962
		},
		{
			"buffer":0,
			"byteLength":352500,
			"byteOffset":1057500,
			"target":34962
		},
		{
			"buffer":0,
			"byteLength":134724,
			"byteOffset":1410000,
			"target":34963
		}
	],
	"samplers":[
		{
			"magFilter":9729,
			"minFilter":9987
		}
	],
	"buffers":[
		{
			"byteLength":1544724,
			"uri":"alt1.bin"
		}
	]
}
