{
	"asset":{
		"generator":"Khronos glTF Blender I/O v4.2.57",
		"version":"2.0"
	},
	"extensionsUsed": [
		"KHR_texture_basisu"
	],
	"scene":0,
	"scenes":[
		{
			"name":"Scene",
			"nodes":[
				0
			]
		}
	],
	"nodes":[
		{
			"mesh":0,
			"name":"alt7"
		}
	],
	"materials":[
		{
			"emissiveFactor":[
				1,
				1,
				1
			],
			"emissiveTexture":{
				"index":0
			},
			"name":"alt7",
			"pbrMetallicRoughness":{
				"baseColorFactor":[
					0,
					0,
					0,
					1
				]
			}
		}
	],
	"meshes":[
		{
			"name":"mesh.010",
			"primitives":[
				{
					"attributes":{
						"POSITION":0,
						"TEXCOORD_0":1,
						"TEXCOORD_1":2,
						"COLOR_0":3,
						"COLOR_1":4
					},
					"indices":5,
					"material":0
				}
			]
		}
	],
	"textures":[
		{
			"sampler":0,
			"source":0,
			"extensions": {
				"KHR_texture_basisu": {
					"source": 0
				}
			}
		}
	],
	"images":[
		{
			"mimeType":"image/ktx2",
			"name":"alt7",
			"uri":"alt7/alt7.ktx2"
		}
	],
	"accessors":[
		{
			"bufferView":0,
			"componentType":5126,
			"count":91753,
			"max":[
				2.0199999809265137,
				2.700000047683716,
				1.5213152170181274
			],
			"min":[
				-2.430211067199707,
				-0.0010408841772004962,
				-1.5000001192092896
			],
			"type":"VEC3"
		},
		{
			"bufferView":1,
			"componentType":5126,
			"count":91753,
			"type":"VEC2"
		},
		{
			"bufferView":2,
			"componentType":5126,
			"count":91753,
			"type":"VEC2"
		},
		{
			"bufferView":3,
			"componentType":5121,
			"count":91753,
			"normalized":true,
			"type":"VEC4"
		},
		{
			"bufferView":4,
			"componentType":5126,
			"count":91753,
			"type":"VEC3"
		},
		{
			"bufferView":5,
			"componentType":5125,
			"count":235374,
			"type":"SCALAR"
		}
	],
	"bufferViews":[
		{
			"buffer":0,
			"byteLength":1101036,
			"byteOffset":0,
			"target":34962
		},
		{
			"buffer":0,
			"byteLength":734024,
			"byteOffset":1101036,
			"target":34962
		},
		{
			"buffer":0,
			"byteLength":734024,
			"byteOffset":1835060,
			"target":34962
		},
		{
			"buffer":0,
			"byteLength":367012,
			"byteOffset":2569084,
			"target":34962
		},
		{
			"buffer":0,
			"byteLength":1101036,
			"byteOffset":2936096,
			"target":34962
		},
		{
			"buffer":0,
			"byteLength":941496,
			"byteOffset":4037132,
			"target":34963
		}
	],
	"samplers":[
		{
			"magFilter":9729,
			"minFilter":9987
		}
	],
	"buffers":[
		{
			"byteLength":4978628,
			"uri":"alt7.bin"
		}
	]
}
