{
	"asset":{
		"generator":"Khronos glTF Blender I/O v4.2.57",
		"version":"2.0"
	},
	"extensionsUsed":[
		"KHR_materials_transmission",
		"KHR_materials_ior",
		"KHR_texture_basisu"
	],
	"scene":0,
	"scenes":[
		{
			"name":"Scene",
			"nodes":[
				0
			]
		}
	],
	"nodes":[
		{
			"mesh":0,
			"name":"alt9"
		}
	],
	"materials":[
		{
			"emissiveFactor":[
				1,
				1,
				1
			],
			"emissiveTexture":{
				"index":0
			},
			"name":"alt9",
			"pbrMetallicRoughness":{
				"baseColorFactor":[
					0,
					0,
					0,
					1
				]
			}
		},
		{
			"alphaMode":"BLEND",
			"doubleSided":true,
			"extensions":{
				"KHR_materials_transmission":{
					"transmissionFactor":1
				},
				"KHR_materials_ior":{
					"ior":1.2000000476837158
				}
			},
			"name":"glass",
			"pbrMetallicRoughness":{
				"baseColorFactor":[
					1,
					1,
					1,
					0.30000001192092896
				],
				"metallicFactor":0,
				"roughnessFactor":0
			}
		}
	],
	"meshes":[
		{
			"name":"Component#295.636",
			"primitives":[
				{
					"attributes":{
						"POSITION":0,
						"TEXCOORD_0":1,
						"TEXCOORD_1":2,
						"COLOR_0":3,
						"COLOR_1":4,
						"COLOR_2":5
					},
					"indices":6,
					"material":0
				},
				{
					"attributes":{
						"POSITION":7,
						"TEXCOORD_0":8,
						"TEXCOORD_1":9,
						"COLOR_0":10,
						"COLOR_1":11,
						"COLOR_2":12
					},
					"indices":13,
					"material":1
				}
			]
		}
	],
	"textures":[
		{
			"sampler":0,
			"source":0,
			"extensions": {
				"KHR_texture_basisu": {
					"source": 0
				}
			}
		}
	],
	"images":[
		{
			"mimeType":"image/ktx2",
			"name":"alt9",
			"uri":"alt9/alt9.ktx2"
		}
	],
	"accessors":[
		{
			"bufferView":0,
			"componentType":5126,
			"count":93075,
			"max":[
				2.180980682373047,
				2.50823974609375,
				1.729959487915039
			],
			"min":[
				-2.0365803241729736,
				-0.009289766661822796,
				-1.6143602132797241
			],
			"type":"VEC3"
		},
		{
			"bufferView":1,
			"componentType":5126,
			"count":93075,
			"type":"VEC2"
		},
		{
			"bufferView":2,
			"componentType":5126,
			"count":93075,
			"type":"VEC2"
		},
		{
			"bufferView":3,
			"componentType":5121,
			"count":93075,
			"normalized":true,
			"type":"VEC4"
		},
		{
			"bufferView":4,
			"componentType":5126,
			"count":93075,
			"type":"VEC3"
		},
		{
			"bufferView":5,
			"componentType":5126,
			"count":93075,
			"type":"VEC3"
		},
		{
			"bufferView":6,
			"componentType":5125,
			"count":239286,
			"type":"SCALAR"
		},
		{
			"bufferView":7,
			"componentType":5126,
			"count":94,
			"max":[
				-1.7573505640029907,
				0.9790049195289612,
				0.43874308466911316
			],
			"min":[
				-1.8594669103622437,
				0.6750752925872803,
				0.04129907488822937
			],
			"type":"VEC3"
		},
		{
			"bufferView":8,
			"componentType":5126,
			"count":94,
			"type":"VEC2"
		},
		{
			"bufferView":9,
			"componentType":5126,
			"count":94,
			"type":"VEC2"
		},
		{
			"bufferView":10,
			"componentType":5121,
			"count":94,
			"normalized":true,
			"type":"VEC4"
		},
		{
			"bufferView":11,
			"componentType":5126,
			"count":94,
			"type":"VEC3"
		},
		{
			"bufferView":12,
			"componentType":5126,
			"count":94,
			"type":"VEC3"
		},
		{
			"bufferView":13,
			"componentType":5123,
			"count":540,
			"type":"SCALAR"
		}
	],
	"bufferViews":[
		{
			"buffer":0,
			"byteLength":1116900,
			"byteOffset":0,
			"target":34962
		},
		{
			"buffer":0,
			"byteLength":744600,
			"byteOffset":1116900,
			"target":34962
		},
		{
			"buffer":0,
			"byteLength":744600,
			"byteOffset":1861500,
			"target":34962
		},
		{
			"buffer":0,
			"byteLength":372300,
			"byteOffset":2606100,
			"target":34962
		},
		{
			"buffer":0,
			"byteLength":1116900,
			"byteOffset":2978400,
			"target":34962
		},
		{
			"buffer":0,
			"byteLength":1116900,
			"byteOffset":4095300,
			"target":34962
		},
		{
			"buffer":0,
			"byteLength":957144,
			"byteOffset":5212200,
			"target":34963
		},
		{
			"buffer":0,
			"byteLength":1128,
			"byteOffset":6169344,
			"target":34962
		},
		{
			"buffer":0,
			"byteLength":752,
			"byteOffset":6170472,
			"target":34962
		},
		{
			"buffer":0,
			"byteLength":752,
			"byteOffset":6171224,
			"target":34962
		},
		{
			"buffer":0,
			"byteLength":376,
			"byteOffset":6171976,
			"target":34962
		},
		{
			"buffer":0,
			"byteLength":1128,
			"byteOffset":6172352,
			"target":34962
		},
		{
			"buffer":0,
			"byteLength":1128,
			"byteOffset":6173480,
			"target":34962
		},
		{
			"buffer":0,
			"byteLength":1080,
			"byteOffset":6174608,
			"target":34963
		}
	],
	"samplers":[
		{
			"magFilter":9729,
			"minFilter":9987
		}
	],
	"buffers":[
		{
			"byteLength":6175688,
			"uri":"alt9.bin"
		}
	]
}
