{
	"asset":{
		"generator":"Khronos glTF Blender I/O v4.2.57",
		"version":"2.0"
	},
	"extensionsUsed": [
		"KHR_texture_basisu"
	],
	"scene":0,
	"scenes":[
		{
			"name":"Scene",
			"nodes":[
				0
			]
		},
		{
			"name":"Scene.001",
			"nodes":[
				1
			]
		}
	],
	"nodes":[
		{
			"mesh":0,
			"name":"alt5"
		},
		{
			"mesh":1,
			"name":"dd.002"
		}
	],
	"materials":[
		{
			"emissiveFactor":[
				1,
				1,
				1
			],
			"emissiveTexture":{
				"index":0
			},
			"name":"alt5",
			"pbrMetallicRoughness":{
				"baseColorFactor":[
					0,
					0,
					0,
					1
				]
			}
		}
	],
	"meshes":[
		{
			"name":"mesh.1290",
			"primitives":[
				{
					"attributes":{
						"POSITION":0,
						"TEXCOORD_0":1,
						"COLOR_0":2,
						"COLOR_1":3,
						"COLOR_2":4
					},
					"indices":5,
					"material":0
				}
			]
		},
		{
			"name":"Cylinder.013",
			"primitives":[
				{
					"attributes":{
						"POSITION":6,
						"TEXCOORD_0":7,
						"TEXCOORD_1":8,
						"COLOR_0":9,
						"COLOR_1":10,
						"COLOR_2":11
					},
					"indices":12,
					"material":1
				}
			]
		}
	],
	"textures":[
		{
			"sampler":0,
			"source":0,
			"extensions": {
				"KHR_texture_basisu": {
					"source": 0
				}
			}
		}
	],
	"images":[
		{
			"mimeType":"image/ktx2",
			"name":"alt5",
			"uri":"alt5/alt5.ktx2"
		}
	],
	"accessors":[
		{
			"bufferView":0,
			"componentType":5126,
			"count":56703,
			"max":[
				2.911975383758545,
				2.1592018604278564,
				1.8196014165878296
			],
			"min":[
				-2.6825361251831055,
				0.007857322692871094,
				-1.2220852375030518
			],
			"type":"VEC3"
		},
		{
			"bufferView":1,
			"componentType":5126,
			"count":56703,
			"type":"VEC2"
		},
		{
			"bufferView":2,
			"componentType":5121,
			"count":56703,
			"normalized":true,
			"type":"VEC4"
		},
		{
			"bufferView":3,
			"componentType":5126,
			"count":56703,
			"type":"VEC3"
		},
		{
			"bufferView":4,
			"componentType":5126,
			"count":56703,
			"type":"VEC3"
		},
		{
			"bufferView":5,
			"componentType":5123,
			"count":134298,
			"type":"SCALAR"
		},
		{
			"bufferView":6,
			"componentType":5126,
			"count":77976,
			"max":[
				0.2477692812681198,
				0.23789048194885254,
				1.1521469354629517
			],
			"min":[
				-0.24776925146579742,
				0.16870763897895813,
				0.6861145496368408
			],
			"type":"VEC3"
		},
		{
			"bufferView":7,
			"componentType":5126,
			"count":77976,
			"type":"VEC2"
		},
		{
			"bufferView":8,
			"componentType":5126,
			"count":77976,
			"type":"VEC2"
		},
		{
			"bufferView":9,
			"componentType":5121,
			"count":77976,
			"normalized":true,
			"type":"VEC4"
		},
		{
			"bufferView":10,
			"componentType":5126,
			"count":77976,
			"type":"VEC3"
		},
		{
			"bufferView":11,
			"componentType":5126,
			"count":77976,
			"type":"VEC3"
		},
		{
			"bufferView":12,
			"componentType":5125,
			"count":190944,
			"type":"SCALAR"
		}
	],
	"bufferViews":[
		{
			"buffer":0,
			"byteLength":680436,
			"byteOffset":0,
			"target":34962
		},
		{
			"buffer":0,
			"byteLength":453624,
			"byteOffset":680436,
			"target":34962
		},
		{
			"buffer":0,
			"byteLength":226812,
			"byteOffset":1134060,
			"target":34962
		},
		{
			"buffer":0,
			"byteLength":680436,
			"byteOffset":1360872,
			"target":34962
		},
		{
			"buffer":0,
			"byteLength":680436,
			"byteOffset":2041308,
			"target":34962
		},
		{
			"buffer":0,
			"byteLength":268596,
			"byteOffset":2721744,
			"target":34963
		},
		{
			"buffer":0,
			"byteLength":935712,
			"byteOffset":2990340,
			"target":34962
		},
		{
			"buffer":0,
			"byteLength":623808,
			"byteOffset":3926052,
			"target":34962
		},
		{
			"buffer":0,
			"byteLength":623808,
			"byteOffset":4549860,
			"target":34962
		},
		{
			"buffer":0,
			"byteLength":311904,
			"byteOffset":5173668,
			"target":34962
		},
		{
			"buffer":0,
			"byteLength":935712,
			"byteOffset":5485572,
			"target":34962
		},
		{
			"buffer":0,
			"byteLength":935712,
			"byteOffset":6421284,
			"target":34962
		},
		{
			"buffer":0,
			"byteLength":763776,
			"byteOffset":7356996,
			"target":34963
		}
	],
	"samplers":[
		{
			"magFilter":9729,
			"minFilter":9987
		}
	],
	"buffers":[
		{
			"byteLength":8120772,
			"uri":"alt5.bin"
		}
	]
}
