{
	"asset":{
		"generator":"Khronos glTF Blender I/O v4.2.57",
		"version":"2.0"
	},
	"extensionsUsed":[
		"KHR_materials_transmission",
		"KHR_materials_ior"
	],
	"scene":0,
	"scenes":[
		{
			"name":"Scene",
			"nodes":[
				0
			]
		}
	],
	"nodes":[
		{
			"mesh":0,
			"name":"alt6.002"
		}
	],
	"materials":[
		{
			"emissiveFactor":[
				1,
				1,
				1
			],
			"emissiveTexture":{
				"index":0
			},
			"name":"alt6",
			"pbrMetallicRoughness":{
				"baseColorFactor":[
					0,
					0,
					0,
					1
				]
			}
		},
		{
			"alphaMode":"BLEND",
			"extensions":{
				"KHR_materials_transmission":{
					"transmissionFactor":1
				},
				"KHR_materials_ior":{
					"ior":1.4500000476837158
				}
			},
			"name":"glassforgltf",
			"pbrMetallicRoughness":{
				"baseColorFactor":[
					1,
					1,
					1,
					0.699999988079071
				],
				"metallicFactor":0,
				"roughnessFactor":0.019999999552965164
			}
		}
	],
	"meshes":[
		{
			"name":"Plane.015",
			"primitives":[
				{
					"attributes":{
						"POSITION":0,
						"TEXCOORD_0":1,
						"COLOR_0":2,
						"COLOR_1":3
					},
					"indices":4,
					"material":0
				},
				{
					"attributes":{
						"POSITION":5,
						"TEXCOORD_0":6,
						"COLOR_0":7,
						"COLOR_1":8
					},
					"indices":9,
					"material":1
				}
			]
		}
	],
	"textures":[
		{
			"sampler":0,
			"source":0
		}
	],
	"images":[
		{
			"mimeType":"image/jpeg",
			"name":"alt6",
			"uri":"alt6/alt6.jpg"
		}
	],
	"accessors":[
		{
			"bufferView":0,
			"componentType":5126,
			"count":75728,
			"max":[
				2.6000008583068848,
				2.5399999618530273,
				1.5816195011138916
			],
			"min":[
				-2.6203320026397705,
				-0.007443904876708984,
				-1.5809998512268066
			],
			"type":"VEC3"
		},
		{
			"bufferView":1,
			"componentType":5126,
			"count":75728,
			"type":"VEC2"
		},
		{
			"bufferView":2,
			"componentType":5121,
			"count":75728,
			"normalized":true,
			"type":"VEC4"
		},
		{
			"bufferView":3,
			"componentType":5126,
			"count":75728,
			"type":"VEC3"
		},
		{
			"bufferView":4,
			"componentType":5125,
			"count":187497,
			"type":"SCALAR"
		},
		{
			"bufferView":5,
			"componentType":5126,
			"count":30,
			"max":[
				0.839789628982544,
				2.1581830978393555,
				0.712095320224762
			],
			"min":[
				-2.6286449432373047,
				0.10758276283740997,
				-1.506149411201477
			],
			"type":"VEC3"
		},
		{
			"bufferView":6,
			"componentType":5126,
			"count":30,
			"type":"VEC2"
		},
		{
			"bufferView":7,
			"componentType":5121,
			"count":30,
			"normalized":true,
			"type":"VEC4"
		},
		{
			"bufferView":8,
			"componentType":5126,
			"count":30,
			"type":"VEC3"
		},
		{
			"bufferView":9,
			"componentType":5123,
			"count":60,
			"type":"SCALAR"
		}
	],
	"bufferViews":[
		{
			"buffer":0,
			"byteLength":908736,
			"byteOffset":0,
			"target":34962
		},
		{
			"buffer":0,
			"byteLength":605824,
			"byteOffset":908736,
			"target":34962
		},
		{
			"buffer":0,
			"byteLength":302912,
			"byteOffset":1514560,
			"target":34962
		},
		{
			"buffer":0,
			"byteLength":908736,
			"byteOffset":1817472,
			"target":34962
		},
		{
			"buffer":0,
			"byteLength":749988,
			"byteOffset":2726208,
			"target":34963
		},
		{
			"buffer":0,
			"byteLength":360,
			"byteOffset":3476196,
			"target":34962
		},
		{
			"buffer":0,
			"byteLength":240,
			"byteOffset":3476556,
			"target":34962
		},
		{
			"buffer":0,
			"byteLength":120,
			"byteOffset":3476796,
			"target":34962
		},
		{
			"buffer":0,
			"byteLength":360,
			"byteOffset":3476916,
			"target":34962
		},
		{
			"buffer":0,
			"byteLength":120,
			"byteOffset":3477276,
			"target":34963
		}
	],
	"samplers":[
		{
			"magFilter":9729,
			"minFilter":9987
		}
	],
	"buffers":[
		{
			"byteLength":3477396,
			"uri":"alt6.bin"
		}
	]
}
