{
	"asset":{
		"generator":"Khronos glTF Blender I/O v4.2.57",
		"version":"2.0"
	},
	"extensionsUsed":[
		"KHR_materials_transmission",
		"KHR_materials_ior",
		"KHR_texture_basisu"
	],
	"scene":0,
	"scenes":[
		{
			"name":"Scene",
			"nodes":[
				0
			]
		}
	],
	"nodes":[
		{
			"mesh":0,
			"name":"alt8"
		}
	],
	"materials":[
		{
			"emissiveFactor":[
				1,
				1,
				1
			],
			"emissiveTexture":{
				"index":0
			},
			"name":"alt8wall",
			"pbrMetallicRoughness":{
				"baseColorFactor":[
					0,
					0,
					0,
					1
				]
			}
		},
		{
			"alphaMode":"BLEND",
			"extensions":{
				"KHR_materials_transmission":{
					"transmissionFactor":1
				},
				"KHR_materials_ior":{
					"ior":2
				}
			},
			"name":"glassforgltf",
			"pbrMetallicRoughness":{
				"baseColorFactor":[
					1,
					1,
					1,
					0.8999999761581421
				],
				"metallicFactor":0,
				"roughnessFactor":0.019999999552965164
			}
		},
		{
			"doubleSided":true,
			"emissiveFactor":[
				1,
				1,
				1
			],
			"emissiveTexture":{
				"index":1
			},
			"name":"alt8object",
			"pbrMetallicRoughness":{
				"baseColorFactor":[
					0,
					0,
					0,
					1
				]
			}
		}
	],
	"meshes":[
		{
			"name":"Mesh.042",
			"primitives":[
				{
					"attributes":{
						"POSITION":0,
						"TEXCOORD_0":1
					},
					"indices":2,
					"material":0
				},
				{
					"attributes":{
						"POSITION":3,
						"TEXCOORD_0":4
					},
					"indices":5,
					"material":1
				},
				{
					"attributes":{
						"POSITION":6,
						"TEXCOORD_0":7
					},
					"indices":8,
					"material":2
				}
			]
		}
	],
	"textures":[
		{
			"sampler":0,
			"source":0,
			"extensions": {
				"KHR_texture_basisu": {
					"source": 0
				}
			}
		},
		{
			"sampler":0,
			"source":0
		}
	],
	"images":[
		{
			"mimeType":"image/ktx2",
			"name":"alt8",
			"uri":"alt8/alt8.ktx2"
		}
	],
	"accessors":[
		{
			"bufferView":0,
			"componentType":5126,
			"count":408,
			"max":[
				2.0826187133789062,
				2.499999761581421,
				2.1342694759368896
			],
			"min":[
				-2.422729015350342,
				-3.5762786865234375e-07,
				-2.1277005672454834
			],
			"type":"VEC3"
		},
		{
			"bufferView":1,
			"componentType":5126,
			"count":408,
			"type":"VEC2"
		},
		{
			"bufferView":2,
			"componentType":5123,
			"count":972,
			"type":"SCALAR"
		},
		{
			"bufferView":3,
			"componentType":5126,
			"count":51,
			"max":[
				2.0926709175109863,
				1.972357988357544,
				2.1241250038146973
			],
			"min":[
				-0.8447708487510681,
				0.014392971992492676,
				-2.1421000957489014
			],
			"type":"VEC3"
		},
		{
			"bufferView":4,
			"componentType":5126,
			"count":51,
			"type":"VEC2"
		},
		{
			"bufferView":5,
			"componentType":5123,
			"count":123,
			"type":"SCALAR"
		},
		{
			"bufferView":6,
			"componentType":5126,
			"count":66468,
			"max":[
				2.147155284881592,
				2.502061605453491,
				2.1267781257629395
			],
			"min":[
				-2.4268784523010254,
				-0.0370294451713562,
				-2.1965854167938232
			],
			"type":"VEC3"
		},
		{
			"bufferView":7,
			"componentType":5126,
			"count":66468,
			"type":"VEC2"
		},
		{
			"bufferView":8,
			"componentType":5125,
			"count":176349,
			"type":"SCALAR"
		}
	],
	"bufferViews":[
		{
			"buffer":0,
			"byteLength":4896,
			"byteOffset":0,
			"target":34962
		},
		{
			"buffer":0,
			"byteLength":3264,
			"byteOffset":4896,
			"target":34962
		},
		{
			"buffer":0,
			"byteLength":1944,
			"byteOffset":8160,
			"target":34963
		},
		{
			"buffer":0,
			"byteLength":612,
			"byteOffset":10104,
			"target":34962
		},
		{
			"buffer":0,
			"byteLength":408,
			"byteOffset":10716,
			"target":34962
		},
		{
			"buffer":0,
			"byteLength":246,
			"byteOffset":11124,
			"target":34963
		},
		{
			"buffer":0,
			"byteLength":797616,
			"byteOffset":11372,
			"target":34962
		},
		{
			"buffer":0,
			"byteLength":531744,
			"byteOffset":808988,
			"target":34962
		},
		{
			"buffer":0,
			"byteLength":705396,
			"byteOffset":1340732,
			"target":34963
		}
	],
	"samplers":[
		{
			"magFilter":9729,
			"minFilter":9987
		}
	],
	"buffers":[
		{
			"byteLength":2046128,
			"uri":"alt8.bin"
		}
	]
}
