{
	"asset":{
		"generator":"Khronos glTF Blender I/O v4.2.57",
		"version":"2.0"
	},
	"extensionsUsed": [
		"KHR_texture_basisu"
	],
	"scene":0,
	"scenes":[
		{
			"name":"Scene",
			"nodes":[
				0
			]
		}
	],
	"nodes":[
		{
			"mesh":0,
			"name":"alt4"
		}
	],
	"materials":[
		{
			"emissiveFactor":[
				1,
				1,
				1
			],
			"emissiveTexture":{
				"index":0
			},
			"name":"alt4",
			"pbrMetallicRoughness":{
				"baseColorFactor":[
					0,
					0,
					0,
					1
				]
			}
		}
	],
	"meshes":[
		{
			"name":"Plane.3336",
			"primitives":[
				{
					"attributes":{
						"POSITION":0,
						"TEXCOORD_0":1,
						"COLOR_0":2,
						"COLOR_1":3,
						"COLOR_2":4
					},
					"indices":5,
					"material":0
				}
			]
		}
	],
	"textures":[
		{
			"sampler":0,
			"source":0,
			"extensions": {
				"KHR_texture_basisu": {
					"source": 0
				}
			}
		}
	],
	"images":[
		{
			"mimeType":"image/ktx2",
			"name":"alt4",
			"uri":"alt4/alt4.ktx2"
		}
	],
	"accessors":[
		{
			"bufferView":0,
			"componentType":5126,
			"count":83748,
			"max":[
				1.986605167388916,
				2.4718716144561768,
				1.8270939588546753
			],
			"min":[
				-1.9187588691711426,
				-0.009999994188547134,
				-2.0865378379821777
			],
			"type":"VEC3"
		},
		{
			"bufferView":1,
			"componentType":5126,
			"count":83748,
			"type":"VEC2"
		},
		{
			"bufferView":2,
			"componentType":5121,
			"count":83748,
			"normalized":true,
			"type":"VEC4"
		},
		{
			"bufferView":3,
			"componentType":5126,
			"count":83748,
			"type":"VEC3"
		},
		{
			"bufferView":4,
			"componentType":5126,
			"count":83748,
			"type":"VEC3"
		},
		{
			"bufferView":5,
			"componentType":5125,
			"count":219339,
			"type":"SCALAR"
		}
	],
	"bufferViews":[
		{
			"buffer":0,
			"byteLength":1004976,
			"byteOffset":0,
			"target":34962
		},
		{
			"buffer":0,
			"byteLength":669984,
			"byteOffset":1004976,
			"target":34962
		},
		{
			"buffer":0,
			"byteLength":334992,
			"byteOffset":1674960,
			"target":34962
		},
		{
			"buffer":0,
			"byteLength":1004976,
			"byteOffset":2009952,
			"target":34962
		},
		{
			"buffer":0,
			"byteLength":1004976,
			"byteOffset":3014928,
			"target":34962
		},
		{
			"buffer":0,
			"byteLength":877356,
			"byteOffset":4019904,
			"target":34963
		}
	],
	"samplers":[
		{
			"magFilter":9729,
			"minFilter":9987
		}
	],
	"buffers":[
		{
			"byteLength":4897260,
			"uri":"alt4.bin"
		}
	]
}
